# xmcd
#
# Track frame offsets: 
#        150
#        14903
#        27813
#        43470
#        59950
#        72671
#        87131
#        99546
#        114701
#        130697
#        147260
#        158793
#        176223
#        191206
#        204899
#        220960
#        232133
#        245120
#        260712
#        277961
#        291798
#
# Disc length: 4106 seconds
#
# Revision: 0
# Processed by: cddbd v1.5.2PL0 Copyright (c) Steve Scherf et al.
# Submitted via: ExactAudioCopy v0.99pb4
#
DISCID=5b100815
DTITLE=Various Artist - 10 Jaar Schlagerfestival 2015 - CD 4
DYEAR=2015
DGENRE=Chanson
TTITLE0=Frans Bauer - Heb Je Even Voor Mij
TTITLE1=Paul Severs - Zeg Eens Meisje
TTITLE2=The Sunsets Feat. Bart Van Den Bossche - De Heuveltjes Van Eri
TTITLE2=ka
TTITLE3=Jo Vally - Mooi Is Het Leven
TTITLE4=Chris Roberts - Ich Bin Verliebt In Die Liebe
TTITLE5=Hansi Hinterseer - Hände Zum Himmel
TTITLE6=Lee Towers - I Can See Clearly Now
TTITLE7=Sam Gooris - Marijke
TTITLE8=Samantha - Eviva Espana
TTITLE9=Dana Winner - De Oude Man En De Zee
TTITLE10=Jimmy Frey - Zo Mooi, Zo Blond En Zo Alleen
TTITLE11=Danny Fabry and Silvy Melody - De Telefoon Huilt Mee
TTITLE12=Andy Borg - Adios Amor
TTITLE13=Bata Illic - Michaela
TTITLE14=Garry Hagger - Het Allermooiste
TTITLE15=Eddy Wally - Chérie
TTITLE16=Manke Nelis - Kleine Jodeljongen
TTITLE17=Corry - Ik Krijg Een Heel Apart Gevoel Van Binnen
TTITLE18=Zangeres Zonder Naam - Mexico (Live)
TTITLE19=Will Tura - Mooi, 't Leven Is Mooi
TTITLE20=Tom Waes - Dos Cervezas
EXTD=
EXTT0=
EXTT1=
EXTT2=
EXTT3=
EXTT4=
EXTT5=
EXTT6=
EXTT7=
EXTT8=
EXTT9=
EXTT10=
EXTT11=
EXTT12=
EXTT13=
EXTT14=
EXTT15=
EXTT16=
EXTT17=
EXTT18=
EXTT19=
EXTT20=
PLAYORDER=
